<?xml version="1.0" encoding="UTF-8"?>
<svg version="1.1" xmlns="http://www.w3.org/2000/svg" width="530" height="530">
<path d="M0 0 C10.21759047 3.54202382 20.3814495 6.43881172 30.94223022 8.76342773 C44.60389436 11.77389481 57.60961504 15.21503731 69.96176147 21.97045898 C71.94965617 22.95460409 73.7948289 23.43446412 75.94223022 23.95092773 C77.29213376 24.92844409 78.62259313 25.93292198 79.94223022 26.95092773 C84.57652238 30.00694036 84.57652238 30.00694036 89.94223022 30.95092773 C90.27223022 31.61092773 90.60223022 32.27092773 90.94223022 32.95092773 C93.32804731 34.00704159 95.69128831 34.97083395 98.12973022 35.88842773 C102.8750719 37.69860197 107.40087712 39.66111627 111.94223022 41.95092773 C113.36637794 42.48777923 114.80364978 42.99182884 116.25473022 43.45092773 C117.01269897 43.69456055 117.77066772 43.93819336 118.55160522 44.18920898 C119.34051147 44.44057617 120.12941772 44.69194336 120.94223022 44.95092773 C122.63049605 45.51112503 124.31802753 46.07354145 126.00473022 46.63842773 C126.75883179 46.88979492 127.51293335 47.14116211 128.28988647 47.40014648 C128.83515991 47.5819043 129.38043335 47.76366211 129.94223022 47.95092773 C129.94223022 49.6175944 129.94223022 51.28426107 129.94223022 52.95092773 C130.60223022 53.61092773 131.26223022 54.27092773 131.94223022 54.95092773 C133.92223022 53.46592773 133.92223022 53.46592773 135.94223022 51.95092773 C137.26223022 52.61092773 138.58223022 53.27092773 139.94223022 53.95092773 C139.94223022 54.94092773 139.94223022 55.93092773 139.94223022 56.95092773 C141.26223022 56.95092773 142.58223022 56.95092773 143.94223022 56.95092773 C145.25082397 58.48999023 145.25082397 58.48999023 146.37973022 60.57592773 C147.99091968 63.41684122 149.59899286 65.80449401 151.81723022 68.20092773 C153.94223022 70.95092773 153.94223022 70.95092773 153.75473022 73.32592773 C153.35254272 74.13030273 153.35254272 74.13030273 152.94223022 74.95092773 C152.05535522 74.78592773 151.16848022 74.62092773 150.25473022 74.45092773 C146.9531926 74.56851045 146.9531926 74.56851045 145.64144897 76.55639648 C144.82044721 77.98178392 144.00971524 79.4131223 143.20785522 80.84936523 C139.8208183 86.47351915 134.88926565 88.62539472 128.89535522 90.47045898 C126.94223022 90.95092773 126.94223022 90.95092773 124.94223022 90.95092773 C124.28223022 87.98092773 123.62223022 85.01092773 122.94223022 81.95092773 C122.49492554 82.84295898 122.04762085 83.73499023 121.58676147 84.65405273 C120.98219116 85.82452148 120.37762085 86.99499023 119.75473022 88.20092773 C118.86721069 89.94116211 118.86721069 89.94116211 117.96176147 91.71655273 C115.91439217 94.99551169 114.18250599 96.87382788 110.94223022 98.95092773 C108.12973022 98.70092773 108.12973022 98.70092773 105.94223022 97.95092773 C105.7127771 98.59932617 105.48332397 99.24772461 105.24691772 99.91577148 C103.94223022 101.95092773 103.94223022 101.95092773 101.70004272 102.45483398 C100.8312146 102.47416992 99.96238647 102.49350586 99.06723022 102.51342773 C94.90112242 102.61913495 93.17915044 103.37487873 89.94223022 105.95092773 C86.81723022 106.26342773 86.81723022 106.26342773 83.94223022 105.95092773 C83.28223022 105.29092773 82.62223022 104.63092773 81.94223022 103.95092773 C82.93192996 100.98182853 83.69856435 99.17982598 86.00473022 97.01342773 C89.86617503 92.90285745 89.04931683 87.30525806 88.94223022 81.95092773 C87.57036292 85.10622254 86.20786271 88.24694698 84.99301147 91.46655273 C82.77301821 97.32803693 80.67282535 101.68843463 75.75473022 105.76342773 C68.82337644 108.68999933 60.17615022 106.58752497 52.94223022 105.51342773 C49.27668364 104.98435368 45.61017379 104.46311958 41.94223022 103.95092773 C41.09829712 103.82838623 40.25436401 103.70584473 39.38485718 103.57958984 C38.5955481 103.47525635 37.80623901 103.37092285 36.99301147 103.26342773 C36.30118774 103.16803711 35.60936401 103.07264648 34.89657593 102.97436523 C32.64184292 102.94732534 31.17770193 103.47684258 29.12973022 104.38842773 C18.83802795 108.76442713 8.06402669 104.94997854 -2.05776978 101.95092773 C-0.57276978 95.02092773 -0.57276978 95.02092773 0.94223022 87.95092773 C-0.54276978 91.91092773 -0.54276978 91.91092773 -2.05776978 95.95092773 C-3.37776978 95.62092773 -4.69776978 95.29092773 -6.05776978 94.95092773 C-7.30776978 92.38842773 -7.30776978 92.38842773 -8.05776978 89.95092773 C-8.4934729 90.55420898 -8.92917603 91.15749023 -9.37808228 91.77905273 C-17.06544732 102.09543007 -17.06544732 102.09543007 -23.68276978 103.51342773 C-27.25411309 102.66758327 -28.13234394 101.03160907 -30.05776978 97.95092773 C-31.19929622 95.31175763 -32.13288854 92.67932738 -33.05776978 89.95092773 C-35.03776978 90.94092773 -35.03776978 90.94092773 -37.05776978 91.95092773 C-37.71776978 89.97092773 -38.37776978 87.99092773 -39.05776978 85.95092773 C-39.71776978 85.95092773 -40.37776978 85.95092773 -41.05776978 85.95092773 C-40.89276978 86.63155273 -40.72776978 87.31217773 -40.55776978 88.01342773 C-39.70371688 93.0309885 -39.22637926 97.52688006 -42.05776978 101.95092773 C-42.71776978 101.95092773 -43.37776978 101.95092773 -44.05776978 101.95092773 C-44.05776978 102.61092773 -44.05776978 103.27092773 -44.05776978 103.95092773 C-45.93276978 106.07592773 -45.93276978 106.07592773 -48.05776978 107.95092773 C-48.71776978 107.95092773 -49.37776978 107.95092773 -50.05776978 107.95092773 C-50.05776978 108.94092773 -50.05776978 109.93092773 -50.05776978 110.95092773 C-51.70776978 110.62092773 -53.35776978 110.29092773 -55.05776978 109.95092773 C-55.61464478 111.04405273 -56.17151978 112.13717773 -56.74526978 113.26342773 C-58.7370015 116.68671663 -60.28259679 118.44085854 -64.05776978 119.95092773 C-66.40254399 120.21552899 -68.71035205 120.38754746 -71.06948853 120.44702148 C-73.26436104 120.75909086 -73.26436104 120.75909086 -74.32730103 122.98608398 C-74.68888306 123.95868164 -74.68888306 123.95868164 -75.05776978 124.95092773 C-75.71776978 124.95092773 -76.37776978 124.95092773 -77.05776978 124.95092773 C-77.38776978 123.96092773 -77.71776978 122.97092773 -78.05776978 121.95092773 C-79.47527541 122.06602435 -80.89178147 122.19346431 -82.30776978 122.32592773 C-83.49112915 122.4303418 -83.49112915 122.4303418 -84.69839478 122.53686523 C-87.16297693 122.96939124 -88.8556776 123.79617208 -91.05776978 124.95092773 C-94.48515047 125.68536645 -95.79467225 125.93404045 -99.05776978 124.95092773 C-103.3674084 121.92995556 -107.21428126 118.53818368 -111.05776978 114.95092773 C-110.06776978 112.97092773 -110.06776978 112.97092773 -109.05776978 110.95092773 C-106.09601854 111.56370385 -104.67718195 112.20465295 -102.05776978 113.95092773 C-105.02776978 109.99092773 -107.99776978 106.03092773 -111.05776978 101.95092773 C-110.39776978 103.93092773 -109.73776978 105.91092773 -109.05776978 107.95092773 C-110.37026978 109.45092773 -110.37026978 109.45092773 -112.05776978 110.95092773 C-113.04776978 110.95092773 -114.03776978 110.95092773 -115.05776978 110.95092773 C-114.72776978 111.94092773 -114.39776978 112.93092773 -114.05776978 113.95092773 C-114.99526978 116.13842773 -114.99526978 116.13842773 -116.05776978 117.95092773 C-119.75431537 117.29859616 -122.36470961 115.66612759 -125.49526978 113.63842773 C-126.42210571 113.04416992 -127.34894165 112.44991211 -128.30386353 111.83764648 C-130.99928811 109.99099389 -133.53475732 108.02520113 -136.05776978 105.95092773 C-135.31526978 107.37405273 -135.31526978 107.37405273 -134.55776978 108.82592773 C-133.05776978 111.95092773 -133.05776978 111.95092773 -133.05776978 113.95092773 C-140.86180077 113.005972 -147.38565695 110.62304056 -153.05776978 104.95092773 C-153.05776978 106.27092773 -153.05776978 107.59092773 -153.05776978 108.95092773 C-152.37069946 109.27706055 -151.68362915 109.60319336 -150.97573853 109.93920898 C-150.07468384 110.37620117 -149.17362915 110.81319336 -148.24526978 111.26342773 C-147.35194946 111.69268555 -146.45862915 112.12194336 -145.53823853 112.56420898 C-143.05776978 113.95092773 -143.05776978 113.95092773 -141.53433228 115.59545898 C-139.47523695 117.4856867 -137.99831857 117.2836382 -135.24526978 117.32592773 C-129.82120887 117.72917424 -127.71712578 118.93456139 -124.05776978 122.95092773 C-121.44497906 127.04429985 -120.50637317 130.09863757 -121.05776978 134.95092773 C-121.71776978 135.61092773 -122.37776978 136.27092773 -123.05776978 136.95092773 C-126.18276978 136.57592773 -126.18276978 136.57592773 -129.05776978 135.95092773 C-128.56276978 136.69342773 -128.06776978 137.43592773 -127.55776978 138.20092773 C-126.05776978 140.95092773 -126.05776978 140.95092773 -126.05776978 144.95092773 C-130.61250094 150.02690879 -136.68012103 152.1537896 -143.05776978 153.95092773 C-144.46542603 154.46526367 -144.46542603 154.46526367 -145.90151978 154.98999023 C-149.31074858 156.02794851 -152.38060381 156.35844819 -155.93276978 156.57592773 C-157.66140259 156.68807617 -157.66140259 156.68807617 -159.42495728 156.80249023 C-160.2937854 156.85147461 -161.16261353 156.90045898 -162.05776978 156.95092773 C-161.48026978 157.28866211 -160.90276978 157.62639648 -160.30776978 157.97436523 C-159.56526978 158.42038086 -158.82276978 158.86639648 -158.05776978 159.32592773 C-157.31526978 159.76678711 -156.57276978 160.20764648 -155.80776978 160.66186523 C-154.94151978 161.29995117 -154.94151978 161.29995117 -154.05776978 161.95092773 C-154.05776978 162.61092773 -154.05776978 163.27092773 -154.05776978 163.95092773 C-155.93014349 164.91438217 -157.80579968 165.87145876 -159.68276978 166.82592773 C-160.7269104 167.35959961 -161.77105103 167.89327148 -162.84683228 168.44311523 C-165.87578602 169.86547064 -168.86420312 170.96312784 -172.05776978 171.95092773 C-169.74776978 172.94092773 -167.43776978 173.93092773 -165.05776978 174.95092773 C-165.05776978 175.61092773 -165.05776978 176.27092773 -165.05776978 176.95092773 C-166.12317993 177.25836914 -166.12317993 177.25836914 -167.21011353 177.57202148 C-168.12921509 177.84143555 -169.04831665 178.11084961 -169.99526978 178.38842773 C-170.91179321 178.65526367 -171.82831665 178.92209961 -172.77261353 179.19702148 C-174.99801908 179.74118825 -174.99801908 179.74118825 -176.05776978 180.95092773 C-175.06776978 181.28092773 -174.07776978 181.61092773 -173.05776978 181.95092773 C-173.05776978 182.61092773 -173.05776978 183.27092773 -173.05776978 183.95092773 C-184.07237863 189.33328459 -191.58350504 190.60644895 -203.30776978 186.76342773 C-205.25148552 186.07505925 -207.18822444 185.37037154 -209.12271118 184.65649414 C-212.22592173 183.52499294 -215.36057845 182.49142064 -218.49526978 181.45092773 C-220.3437854 180.83024414 -220.3437854 180.83024414 -222.22964478 180.19702148 C-224.85265242 179.33012964 -227.48600216 178.51683345 -230.13589478 177.73608398 C-237.76173266 175.4758066 -244.68032019 172.93278633 -251.70230103 169.08764648 C-254.07217439 167.73361585 -254.07217439 167.73361585 -257.05776978 167.95092773 C-257.38776978 168.61092773 -257.71776978 169.27092773 -258.05776978 169.95092773 C-257.06519165 170.04631836 -256.07261353 170.14170898 -255.04995728 170.23999023 C-250.77096021 170.85799631 -247.08414677 172.53319061 -243.18276978 174.32592773 C-236.8590937 177.13089405 -230.47203205 179.54369411 -223.89761353 181.68139648 C-223.17851807 181.91566345 -222.45942261 182.14993042 -221.71853638 182.39129639 C-218.11380063 183.55954783 -214.50327588 184.70561708 -210.88442993 185.8293457 C-202.36068476 188.52709924 -194.31222891 191.54468369 -187.05776978 196.95092773 C-187.05776978 197.61092773 -187.05776978 198.27092773 -187.05776978 198.95092773 C-208.58968467 199.1424171 -208.58968467 199.1424171 -219.05776978 197.95092773 C-218.15026978 198.50780273 -217.24276978 199.06467773 -216.30776978 199.63842773 C-213.21323587 201.84030763 -211.26495509 203.89482499 -209.05776978 206.95092773 C-210.59078952 211.24338303 -213.02547857 212.97015311 -217.05776978 214.95092773 C-226.1794072 215.89010902 -226.1794072 215.89010902 -230.05776978 213.95092773 C-230.05776978 215.27092773 -230.05776978 216.59092773 -230.05776978 217.95092773 C-232.93368487 217.32992301 -235.80845604 216.70426608 -238.68276978 216.07592773 C-239.49101196 215.9019043 -240.29925415 215.72788086 -241.13198853 215.54858398 C-241.92476196 215.37456055 -242.7175354 215.20053711 -243.53433228 215.02124023 C-244.25701294 214.86413574 -244.9796936 214.70703125 -245.72427368 214.54516602 C-248.05776978 213.95092773 -248.05776978 213.95092773 -250.9347229 212.93725586 C-254.18431283 211.9109626 -257.16396617 211.45408811 -260.54995728 211.09936523 C-261.7487854 210.97045898 -262.94761353 210.84155273 -264.18276978 210.70874023 C-265.42026978 210.58241211 -266.65776978 210.45608398 -267.93276978 210.32592773 C-269.82382446 210.12483398 -269.82382446 210.12483398 -271.75308228 209.91967773 C-274.85406679 209.59078544 -277.95556585 209.26807581 -281.05776978 208.95092773 C-281.05776978 208.29092773 -281.05776978 207.63092773 -281.05776978 206.95092773 C-277.09776978 206.95092773 -273.13776978 206.95092773 -269.05776978 206.95092773 C-272.35776978 205.63092773 -275.65776978 204.31092773 -279.05776978 202.95092773 C-279.05776978 202.29092773 -279.05776978 201.63092773 -279.05776978 200.95092773 C-274.06480682 198.00635984 -269.72219351 197.31596838 -264.05776978 196.95092773 C-266.69776978 196.62092773 -269.33776978 196.29092773 -272.05776978 195.95092773 C-272.05776978 192.98092773 -272.05776978 190.01092773 -272.05776978 186.95092773 C-268.42776978 187.28092773 -264.79776978 187.61092773 -261.05776978 187.95092773 C-266.50276978 185.47592773 -266.50276978 185.47592773 -272.05776978 182.95092773 C-272.05776978 181.96092773 -272.05776978 180.97092773 -272.05776978 179.95092773 C-267.10776978 177.97092773 -267.10776978 177.97092773 -262.05776978 175.95092773 C-263.04776978 173.64092773 -264.03776978 171.33092773 -265.05776978 168.95092773 C-263.73776978 168.62092773 -262.41776978 168.29092773 -261.05776978 167.95092773 C-260.94819946 167.04729492 -260.83862915 166.14366211 -260.72573853 165.21264648 C-260.56718384 164.0331543 -260.40862915 162.85366211 -260.24526978 161.63842773 C-260.09444946 160.46666992 -259.94362915 159.29491211 -259.78823853 158.08764648 C-259.05998214 154.96042788 -258.65413099 153.76249463 -256.05776978 151.95092773 C-255.39776978 151.95092773 -254.73776978 151.95092773 -254.05776978 151.95092773 C-253.87214478 151.11174805 -253.87214478 151.11174805 -253.68276978 150.25561523 C-249.99656159 135.92548093 -240.34783625 123.5529004 -232.01480103 111.57592773 C-226.76701049 104.00747879 -221.66327177 96.46654647 -217.12026978 88.45092773 C-209.3528833 74.83993584 -199.81180173 62.33119849 -189.05776978 50.95092773 C-187.86448011 49.58094926 -186.67675807 48.2060968 -185.49526978 46.82592773 C-175.89013613 35.87695658 -164.66291891 24.74694156 -149.49526978 23.20092773 C-145.75304008 22.96800887 -142.05657771 22.9821976 -138.30776978 23.04467773 C-132.78318133 22.81448655 -126.04365314 22.44386942 -121.05776978 19.95092773 C-118.72709932 19.76738744 -116.39280908 19.62876738 -114.05776978 19.51342773 C-104.8583917 19.22799159 -104.8583917 19.22799159 -96.05776978 16.95092773 C-95.36092953 15.63311292 -94.69811195 14.29710162 -94.05776978 12.95092773 C-91.92105103 11.02124023 -91.92105103 11.02124023 -89.37026978 9.07592773 C-86.38485869 6.77847767 -83.53179822 4.48705333 -80.80776978 1.88842773 C-57.29421493 -18.40104631 -26.06394781 -9.05449925 0 0 Z M-64.05776978 -1.04907227 C-63.06776978 -0.71907227 -62.07776978 -0.38907227 -61.05776978 -0.04907227 C-60.39776978 -1.03907227 -59.73776978 -2.02907227 -59.05776978 -3.04907227 C-61.38134489 -3.23397233 -61.38134489 -3.23397233 -64.05776978 -1.04907227 Z M-35.05776978 4.95092773 C-34.06776978 13.20092773 -33.07776978 21.45092773 -32.05776978 29.95092773 C-28.52115191 22.877692 -27.70038552 14.81338127 -28.05776978 6.95092773 C-30.36776978 6.29092773 -32.67776978 5.63092773 -35.05776978 4.95092773 Z M-52.05776978 5.95092773 C-52.05776978 8.92092773 -52.05776978 11.89092773 -52.05776978 14.95092773 C-51.39776978 14.29092773 -50.73776978 13.63092773 -50.05776978 12.95092773 C-50.38103531 9.35413707 -50.38103531 9.35413707 -51.05776978 5.95092773 C-51.38776978 5.95092773 -51.71776978 5.95092773 -52.05776978 5.95092773 Z M-71.05776978 11.95092773 C-71.38776978 12.94092773 -71.71776978 13.93092773 -72.05776978 14.95092773 C-70.68608739 17.14131196 -70.68608739 17.14131196 -69.05776978 18.95092773 C-69.38776978 16.64092773 -69.71776978 14.33092773 -70.05776978 11.95092773 C-70.38776978 11.95092773 -70.71776978 11.95092773 -71.05776978 11.95092773 Z M16.94223022 19.95092773 C17.60223022 21.60092773 18.26223022 23.25092773 18.94223022 24.95092773 C19.27223022 24.29092773 19.60223022 23.63092773 19.94223022 22.95092773 C20.60223022 22.62092773 21.26223022 22.29092773 21.94223022 21.95092773 C19.46723022 20.96092773 19.46723022 20.96092773 16.94223022 19.95092773 Z M-4.05776978 21.95092773 C-4.63932487 29.1549415 -3.37776043 35.94523455 -2.05776978 43.01342773 C-1.7715979 44.59800781 -1.7715979 44.59800781 -1.47964478 46.21459961 C-1.0126525 48.79473193 -0.5385701 51.37333931 -0.05776978 53.95092773 C0.27223022 53.95092773 0.60223022 53.95092773 0.94223022 53.95092773 C0.61223022 42.73092773 0.28223022 31.51092773 -0.05776978 19.95092773 C-1.52001994 19.8584777 -1.52001994 19.8584777 -4.05776978 21.95092773 Z M-67.05776978 21.95092773 C-66.05776978 24.95092773 -66.05776978 24.95092773 -66.05776978 24.95092773 Z M-66.05776978 24.95092773 C-65.05776978 26.95092773 -65.05776978 26.95092773 -65.05776978 26.95092773 Z M13.94223022 26.95092773 C13.94223022 29.26092773 13.94223022 31.57092773 13.94223022 33.95092773 C14.60223022 33.95092773 15.26223022 33.95092773 15.94223022 33.95092773 C16.27223022 32.30092773 16.60223022 30.65092773 16.94223022 28.95092773 C15.95223022 28.29092773 14.96223022 27.63092773 13.94223022 26.95092773 Z M-135.05776978 28.95092773 C-132.29553699 31.71316052 -129.8507036 31.52949064 -126.05776978 31.95092773 C-128.82000256 29.18869495 -131.26483595 29.37236483 -135.05776978 28.95092773 Z M-155.05776978 39.95092773 C-155.05776978 40.94092773 -155.05776978 41.93092773 -155.05776978 42.95092773 C-154.4312854 43.08370117 -153.80480103 43.21647461 -153.15933228 43.35327148 C-152.34206665 43.52987305 -151.52480103 43.70647461 -150.68276978 43.88842773 C-149.8706604 44.06245117 -149.05855103 44.23647461 -148.22183228 44.41577148 C-146.05776978 44.95092773 -146.05776978 44.95092773 -144.05776978 45.95092773 C-143.04665885 42.90179545 -143.04665885 42.90179545 -144.05776978 39.95092773 C-143.63366821 40.32604492 -143.20956665 40.70116211 -142.77261353 41.08764648 C-138.69259639 44.64757352 -134.50642217 47.8641077 -130.05776978 50.95092773 C-131.26730506 46.51596502 -132.40969163 43.81023223 -136.05776978 40.95092773 C-143.06286917 37.31865397 -147.74758444 37.16609523 -155.05776978 39.95092773 Z M39.94223022 41.95092773 C40.27223022 42.61092773 40.60223022 43.27092773 40.94223022 43.95092773 C41.27223022 43.29092773 41.60223022 42.63092773 41.94223022 41.95092773 C41.28223022 41.95092773 40.62223022 41.95092773 39.94223022 41.95092773 Z M30.94223022 44.95092773 C30.94223022 46.93092773 30.94223022 48.91092773 30.94223022 50.95092773 C34.57017021 49.08526285 34.57017021 49.08526285 36.94223022 45.95092773 C33.97223022 45.45592773 33.97223022 45.45592773 30.94223022 44.95092773 Z M-153.05776978 47.95092773 C-149.9908283 56.40005081 -143.97540944 63.31162469 -138.05776978 69.95092773 C-140.53276978 68.96092773 -140.53276978 68.96092773 -143.05776978 67.95092773 C-140.95942072 74.60613928 -137.78469705 80.24656202 -133.93276978 86.01342773 C-133.48884888 86.68059814 -133.04492798 87.34776855 -132.58755493 88.03515625 C-130.340214 91.54131221 -130.340214 91.54131221 -127.05776978 93.95092773 C-127.72220381 89.96432356 -128.93807472 86.4512535 -130.43276978 82.70092773 C-131.97290865 78.81097698 -133.38565323 74.96576373 -134.55776978 70.95092773 C-135.52730223 67.94483549 -136.05169003 66.95700748 -138.37026978 64.63842773 C-141.91591182 61.09278569 -143.56136815 57.12547291 -145.62808228 52.59545898 C-146.92666045 49.70023568 -146.92666045 49.70023568 -150.05776978 47.95092773 C-151.04776978 47.95092773 -152.03776978 47.95092773 -153.05776978 47.95092773 Z M116.94223022 49.95092773 C115.60403524 52.57355094 114.27151513 55.19879372 112.94223022 57.82592773 C112.56066772 58.57229492 112.17910522 59.31866211 111.78598022 60.08764648 C111.42504272 60.80307617 111.06410522 61.51850586 110.69223022 62.25561523 C110.35707397 62.9154541 110.02191772 63.57529297 109.67660522 64.25512695 C108.80976609 65.94881324 108.80976609 65.94881324 108.94223022 67.95092773 C113.39723022 68.94092773 113.39723022 68.94092773 117.94223022 69.95092773 C118.04535522 68.54842773 118.14848022 67.14592773 118.25473022 65.70092773 C118.65372298 61.97503955 119.20951594 59.68364202 121.94223022 56.95092773 C120.95223022 56.95092773 119.96223022 56.95092773 118.94223022 56.95092773 C119.27223022 54.97092773 119.60223022 52.99092773 119.94223022 50.95092773 C118.95223022 50.62092773 117.96223022 50.29092773 116.94223022 49.95092773 Z M82.94223022 50.95092773 C83.94223022 52.95092773 83.94223022 52.95092773 83.94223022 52.95092773 Z M81.94223022 52.95092773 C82.94223022 54.95092773 82.94223022 54.95092773 82.94223022 54.95092773 Z M-172.05776978 55.95092773 C-169.59751919 60.46138714 -166.45494941 64.13597197 -163.05776978 67.95092773 C-163.05776978 64.18488953 -164.13184221 63.17950125 -166.43276978 60.26342773 C-167.05925415 59.45518555 -167.68573853 58.64694336 -168.33120728 57.81420898 C-168.9009729 57.19932617 -169.47073853 56.58444336 -170.05776978 55.95092773 C-170.71776978 55.95092773 -171.37776978 55.95092773 -172.05776978 55.95092773 Z M80.94223022 55.95092773 C81.94223022 57.95092773 81.94223022 57.95092773 81.94223022 57.95092773 Z M137.94223022 57.95092773 C138.94223022 59.95092773 138.94223022 59.95092773 138.94223022 59.95092773 Z M-45.05776978 62.95092773 C-44.05776978 64.95092773 -44.05776978 64.95092773 -44.05776978 64.95092773 Z M-44.05776978 64.95092773 C-44.4410438 71.58582566 -44.4410438 71.58582566 -42.87026978 77.95092773 C-40.87273833 80.4489136 -40.87273833 80.4489136 -36.05776978 81.95092773 C-37.04776978 77.00092773 -38.03776978 72.05092773 -39.05776978 66.95092773 C-39.38776978 67.61092773 -39.71776978 68.27092773 -40.05776978 68.95092773 C-40.71776978 68.95092773 -41.37776978 68.95092773 -42.05776978 68.95092773 C-42.71776978 67.63092773 -43.37776978 66.31092773 -44.05776978 64.95092773 Z M95.94223022 64.95092773 C96.94223022 66.95092773 96.94223022 66.95092773 96.94223022 66.95092773 Z M94.94223022 66.95092773 C94.28223022 68.60092773 93.62223022 70.25092773 92.94223022 71.95092773 C93.93223022 71.62092773 94.92223022 71.29092773 95.94223022 70.95092773 C95.61223022 69.63092773 95.28223022 68.31092773 94.94223022 66.95092773 Z M-186.05776978 67.95092773 C-187.54276978 70.42592773 -187.54276978 70.42592773 -189.05776978 72.95092773 C-186.58276978 73.44592773 -186.58276978 73.44592773 -184.05776978 73.95092773 C-184.05776978 72.30092773 -184.05776978 70.65092773 -184.05776978 68.95092773 C-184.71776978 68.62092773 -185.37776978 68.29092773 -186.05776978 67.95092773 Z M-130.05776978 67.95092773 C-129.05776978 69.95092773 -129.05776978 69.95092773 -129.05776978 69.95092773 Z M-159.05776978 70.95092773 C-158.05776978 72.95092773 -158.05776978 72.95092773 -158.05776978 72.95092773 Z M-16.05776978 70.95092773 C-16.70522069 74.1589368 -17.3504387 77.36739112 -17.99526978 80.57592773 C-18.26887329 81.93137695 -18.26887329 81.93137695 -18.54800415 83.31420898 C-19.45845711 87.84992012 -20.33649198 92.3803042 -21.05776978 96.95092773 C-19.33022893 95.32210351 -17.68629858 93.67550917 -16.05776978 91.95092773 C-15.29013306 91.17168945 -15.29013306 91.17168945 -14.50698853 90.37670898 C-12.95855378 88.58620089 -11.89778815 87.17034471 -11.05776978 84.95092773 C-11.51565107 81.70108731 -12.75478717 78.94275475 -14.05776978 75.95092773 C-14.43006337 74.292529 -14.78712667 72.62891498 -15.05776978 70.95092773 C-15.38776978 70.95092773 -15.71776978 70.95092773 -16.05776978 70.95092773 Z M118.94223022 73.95092773 C119.27223022 75.27092773 119.60223022 76.59092773 119.94223022 77.95092773 C120.93223022 76.30092773 121.92223022 74.65092773 122.94223022 72.95092773 C120.86769463 72.80185654 120.86769463 72.80185654 118.94223022 73.95092773 Z M-125.05776978 73.95092773 C-126.11836475 76.51623915 -126.11836475 76.51623915 -126.05776978 79.95092773 C-124.35261506 83.17760512 -122.2755366 86.05818839 -120.05776978 88.95092773 C-118.77279441 85.09600162 -119.65254887 83.54745938 -120.99526978 79.76342773 C-121.56567993 78.1334082 -121.56567993 78.1334082 -122.14761353 76.47045898 C-122.44796509 75.63901367 -122.74831665 74.80756836 -123.05776978 73.95092773 C-123.71776978 73.95092773 -124.37776978 73.95092773 -125.05776978 73.95092773 Z M-174.05776978 74.95092773 C-173.5767589 79.57858407 -171.83868818 81.73616943 -168.68276978 85.07592773 C-167.49554321 86.34823242 -167.49554321 86.34823242 -166.28433228 87.64624023 C-164.55855973 89.43256621 -162.82535818 91.20614692 -161.05776978 92.95092773 C-161.05776978 92.29092773 -161.05776978 91.63092773 -161.05776978 90.95092773 C-158.74776978 90.29092773 -156.43776978 89.63092773 -154.05776978 88.95092773 C-155.81021225 87.30256443 -155.81021225 87.30256443 -158.05776978 85.95092773 C-160.17144525 86.31242325 -160.17144525 86.31242325 -162.05776978 86.95092773 C-162.67265259 86.08467773 -163.2875354 85.21842773 -163.92105103 84.32592773 C-164.73694527 83.20055636 -165.55337967 82.07557644 -166.37026978 80.95092773 C-166.77439087 80.37858398 -167.17851196 79.80624023 -167.59487915 79.21655273 C-168.67677503 77.73884129 -169.86232527 76.33838664 -171.05776978 74.95092773 C-172.04776978 74.95092773 -173.03776978 74.95092773 -174.05776978 74.95092773 Z M-156.05776978 74.95092773 C-155.72776978 75.94092773 -155.39776978 76.93092773 -155.05776978 77.95092773 C-155.05776978 76.96092773 -155.05776978 75.97092773 -155.05776978 74.95092773 C-155.38776978 74.95092773 -155.71776978 74.95092773 -156.05776978 74.95092773 Z M-27.05776978 75.95092773 C-28.70776978 80.24092773 -30.35776978 84.53092773 -32.05776978 88.95092773 C-28.62443644 92.15092773 -28.62443644 92.15092773 -26.05776978 91.95092773 C-26.05776978 86.67092773 -26.05776978 81.39092773 -26.05776978 75.95092773 C-26.38776978 75.95092773 -26.71776978 75.95092773 -27.05776978 75.95092773 Z M103.94223022 75.95092773 C104.94223022 77.95092773 104.94223022 77.95092773 104.94223022 77.95092773 Z M90.94223022 76.95092773 C90.94223022 79.95092773 90.94223022 79.95092773 90.94223022 79.95092773 Z M-154.05776978 77.95092773 C-153.39776978 79.27092773 -152.73776978 80.59092773 -152.05776978 81.95092773 C-151.06776978 81.95092773 -150.07776978 81.95092773 -149.05776978 81.95092773 C-150.70776978 80.63092773 -152.35776978 79.31092773 -154.05776978 77.95092773 Z M102.94223022 77.95092773 C103.94223022 79.95092773 103.94223022 79.95092773 103.94223022 79.95092773 Z M123.94223022 78.95092773 C124.94223022 80.95092773 124.94223022 80.95092773 124.94223022 80.95092773 Z M101.94223022 79.95092773 C102.94223022 81.95092773 102.94223022 81.95092773 102.94223022 81.95092773 Z M-6.05776978 80.95092773 C-5.72776978 81.94092773 -5.39776978 82.93092773 -5.05776978 83.95092773 C-5.05776978 82.96092773 -5.05776978 81.97092773 -5.05776978 80.95092773 C-5.38776978 80.95092773 -5.71776978 80.95092773 -6.05776978 80.95092773 Z M49.94223022 81.95092773 C48.59325501 83.86321128 47.2883442 85.80667081 46.00473022 87.76342773 C45.29445679 88.84237305 44.58418335 89.92131836 43.85238647 91.03295898 C43.22203491 91.99588867 42.59168335 92.95881836 41.94223022 93.95092773 C41.28223022 94.94092773 40.62223022 95.93092773 39.94223022 96.95092773 C41.92223022 96.95092773 43.90223022 96.95092773 45.94223022 96.95092773 C49.2881768 91.77010722 50.51049518 88.10315209 50.94223022 81.95092773 C50.61223022 81.95092773 50.28223022 81.95092773 49.94223022 81.95092773 Z M99.94223022 82.95092773 C100.94223022 84.95092773 100.94223022 84.95092773 100.94223022 84.95092773 Z M-211.05776978 83.95092773 C-211.05776978 84.61092773 -211.05776978 85.27092773 -211.05776978 85.95092773 C-208.74776978 86.61092773 -206.43776978 87.27092773 -204.05776978 87.95092773 C-203.72776978 86.63092773 -203.39776978 85.31092773 -203.05776978 83.95092773 C-205.69776978 83.95092773 -208.33776978 83.95092773 -211.05776978 83.95092773 Z M1.94223022 83.95092773 C2.94223022 85.95092773 2.94223022 85.95092773 2.94223022 85.95092773 Z M98.94223022 84.95092773 C99.94223022 87.95092773 99.94223022 87.95092773 99.94223022 87.95092773 Z M-213.05776978 86.95092773 C-214.18293062 88.78377217 -214.18293062 88.78377217 -215.05776978 90.95092773 C-214.72776978 91.94092773 -214.39776978 92.93092773 -214.05776978 93.95092773 C-212.73776978 92.63092773 -211.41776978 91.31092773 -210.05776978 89.95092773 C-211.04776978 88.96092773 -212.03776978 87.97092773 -213.05776978 86.95092773 Z M28.94223022 86.95092773 C27.62223022 88.60092773 26.30223022 90.25092773 24.94223022 91.95092773 C25.27223022 92.61092773 25.60223022 93.27092773 25.94223022 93.95092773 C27.26223022 92.63092773 28.58223022 91.31092773 29.94223022 89.95092773 C29.61223022 88.96092773 29.28223022 87.97092773 28.94223022 86.95092773 Z M-140.05776978 87.95092773 C-139.70727403 91.19301341 -139.49555797 92.56620478 -136.99526978 94.76342773 C-136.35589478 95.15530273 -135.71651978 95.54717773 -135.05776978 95.95092773 C-136.24359348 92.57589104 -137.33350667 90.30370042 -140.05776978 87.95092773 Z M97.94223022 87.95092773 C97.28223022 90.92092773 96.62223022 93.89092773 95.94223022 96.95092773 C97.26223022 96.62092773 98.58223022 96.29092773 99.94223022 95.95092773 C99.61223022 93.31092773 99.28223022 90.67092773 98.94223022 87.95092773 C98.61223022 87.95092773 98.28223022 87.95092773 97.94223022 87.95092773 Z M-198.05776978 88.95092773 C-198.05776978 89.61092773 -198.05776978 90.27092773 -198.05776978 90.95092773 C-197.39776978 90.62092773 -196.73776978 90.29092773 -196.05776978 89.95092773 C-196.71776978 89.62092773 -197.37776978 89.29092773 -198.05776978 88.95092773 Z M-119.05776978 88.95092773 C-118.05776978 90.95092773 -118.05776978 90.95092773 -118.05776978 90.95092773 Z M-118.05776978 90.95092773 C-117.05776978 92.95092773 -117.05776978 92.95092773 -117.05776978 92.95092773 Z M-90.05776978 90.95092773 C-91.04776978 92.43592773 -91.04776978 92.43592773 -92.05776978 93.95092773 C-91.06776978 94.28092773 -90.07776978 94.61092773 -89.05776978 94.95092773 C-89.38776978 93.63092773 -89.71776978 92.31092773 -90.05776978 90.95092773 Z M67.46176147 92.94702148 C66.56844116 93.42268555 65.67512085 93.89834961 64.75473022 94.38842773 C63.85367554 94.86151367 62.95262085 95.33459961 62.02426147 95.82202148 C61.33719116 96.19456055 60.65012085 96.56709961 59.94223022 96.95092773 C59.94223022 97.28092773 59.94223022 97.61092773 59.94223022 97.95092773 C63.90223022 97.95092773 67.86223022 97.95092773 71.94223022 97.95092773 C72.27223022 96.30092773 72.60223022 94.65092773 72.94223022 92.95092773 C70.00867599 91.61364441 70.00867599 91.61364441 67.46176147 92.94702148 Z M-187.05776978 92.95092773 C-185.94163721 96.96900496 -184.51235429 98.59163751 -180.96792603 100.71655273 C-177.61177388 102.88535453 -174.60462651 105.51188767 -171.52261353 108.04858398 C-167.22795542 111.60745168 -167.22795542 111.60745168 -162.05776978 112.95092773 C-161.72776978 111.30092773 -161.39776978 109.65092773 -161.05776978 107.95092773 C-162.70776978 107.29092773 -164.35776978 106.63092773 -166.05776978 105.95092773 C-165.72776978 106.94092773 -165.39776978 107.93092773 -165.05776978 108.95092773 C-165.98718384 108.21487305 -166.9165979 107.47881836 -167.87417603 106.72045898 C-169.12280729 105.73469746 -170.37150898 104.74902516 -171.62026978 103.76342773 C-172.22935181 103.28067383 -172.83843384 102.79791992 -173.4659729 102.30053711 C-179.86058233 96.38802365 -179.86058233 96.38802365 -187.05776978 92.95092773 Z M-160.05776978 93.95092773 C-159.05776978 95.95092773 -159.05776978 95.95092773 -159.05776978 95.95092773 Z M-148.05776978 93.95092773 C-145.1041839 99.59921622 -145.1041839 99.59921622 -140.24526978 103.45092773 C-139.52339478 103.61592773 -138.80151978 103.78092773 -138.05776978 103.95092773 C-138.96403761 102.65194384 -139.88326514 101.36199606 -140.80776978 100.07592773 C-141.31823853 99.35663086 -141.82870728 98.63733398 -142.35464478 97.89624023 C-144.13280524 95.86522208 -145.58478585 94.97237762 -148.05776978 93.95092773 Z M-127.05776978 93.95092773 C-126.05776978 95.95092773 -126.05776978 95.95092773 -126.05776978 95.95092773 Z M-113.05776978 98.95092773 C-112.05776978 100.95092773 -112.05776978 100.95092773 -112.05776978 100.95092773 Z M-156.05776978 100.95092773 C-155.05776978 102.95092773 -155.05776978 102.95092773 -155.05776978 102.95092773 Z M-57.05776978 101.95092773 C-56.05776978 104.95092773 -56.05776978 104.95092773 -56.05776978 104.95092773 Z M-94.05776978 102.95092773 C-93.39776978 104.27092773 -92.73776978 105.59092773 -92.05776978 106.95092773 C-89.74776978 106.95092773 -87.43776978 106.95092773 -85.05776978 106.95092773 C-87.99605574 104.44794339 -90.23679739 103.48161834 -94.05776978 102.95092773 Z M-119.05776978 106.95092773 C-118.05776978 108.95092773 -118.05776978 108.95092773 -118.05776978 108.95092773 Z M-67.05776978 106.95092773 C-67.38776978 109.59092773 -67.71776978 112.23092773 -68.05776978 114.95092773 C-65.56224493 114.16962702 -65.56224493 114.16962702 -63.05776978 112.95092773 C-62.72776978 111.96092773 -62.39776978 110.97092773 -62.05776978 109.95092773 C-63.70776978 108.96092773 -65.35776978 107.97092773 -67.05776978 106.95092773 Z M-203.05776978 115.95092773 C-203.38776978 116.61092773 -203.71776978 117.27092773 -204.05776978 117.95092773 C-203.06776978 117.62092773 -202.07776978 117.29092773 -201.05776978 116.95092773 C-201.71776978 116.62092773 -202.37776978 116.29092773 -203.05776978 115.95092773 Z M-100.05776978 116.95092773 C-99.72776978 117.61092773 -99.39776978 118.27092773 -99.05776978 118.95092773 C-98.39776978 118.62092773 -97.73776978 118.29092773 -97.05776978 117.95092773 C-98.04776978 117.62092773 -99.03776978 117.29092773 -100.05776978 116.95092773 Z M-140.05776978 124.95092773 C-139.06776978 124.95092773 -138.07776978 124.95092773 -137.05776978 124.95092773 C-137.05776978 125.61092773 -137.05776978 126.27092773 -137.05776978 126.95092773 C-135.7686349 127.62247706 -134.47636774 128.28801632 -133.18276978 128.95092773 C-132.4634729 129.32217773 -131.74417603 129.69342773 -131.00308228 130.07592773 C-129.10928001 131.08766519 -129.10928001 131.08766519 -127.05776978 130.95092773 C-128.04339734 127.63563501 -128.71224396 126.20143395 -131.55776978 124.13842773 C-135.2634803 122.37821523 -136.57565628 123.09380054 -140.05776978 124.95092773 Z M-219.05776978 133.95092773 C-221.40064396 136.62340407 -221.40064396 136.62340407 -222.05776978 139.95092773 C-221.24952759 140.33764648 -220.4412854 140.72436523 -219.60855103 141.12280273 C-218.53991821 141.64358398 -217.4712854 142.16436523 -216.37026978 142.70092773 C-215.31452759 143.21139648 -214.2587854 143.72186523 -213.17105103 144.24780273 C-210.05776978 145.95092773 -210.05776978 145.95092773 -207.43276978 148.07202148 C-205.08002013 149.93332507 -203.63894271 150.65506871 -200.74526978 151.26342773 C-200.04788696 151.42456055 -199.35050415 151.58569336 -198.63198853 151.75170898 C-195.75721124 151.97418795 -193.11947262 151.574395 -190.27146912 151.20063782 C-186.72606676 150.80070875 -183.18503684 150.71677581 -179.62026978 150.63452148 C-178.47195679 150.60334984 -178.47195679 150.60334984 -177.30044556 150.57154846 C-174.88629997 150.50684637 -172.47205797 150.44754233 -170.05776978 150.38842773 C-168.40802074 150.34516678 -166.75828099 150.30155026 -165.10855103 150.25756836 C-161.09171944 150.15124804 -157.07479218 150.04976428 -153.05776978 149.95092773 C-161.66252438 143.36787276 -170.96096702 142.74851244 -181.50430298 143.11791992 C-195.38156416 143.55826232 -206.89234928 140.79397676 -219.05776978 133.95092773 Z M-226.05776978 140.95092773 C-224.07776978 141.94092773 -224.07776978 141.94092773 -222.05776978 142.95092773 C-222.38776978 142.29092773 -222.71776978 141.63092773 -223.05776978 140.95092773 C-224.04776978 140.95092773 -225.03776978 140.95092773 -226.05776978 140.95092773 Z M-222.05776978 142.95092773 C-219.5282045 146.04261863 -216.83322365 146.86024106 -213.05776978 147.95092773 C-215.58733505 144.85923684 -218.2823159 144.04161441 -222.05776978 142.95092773 Z M-240.05776978 143.95092773 C-240.05776978 145.27092773 -240.05776978 146.59092773 -240.05776978 147.95092773 C-238.18809372 148.94022234 -236.311756 149.91693242 -234.43276978 150.88842773 C-233.38862915 151.43370117 -232.34448853 151.97897461 -231.26870728 152.54077148 C-228.1336006 153.9176249 -225.44322345 154.5493499 -222.05776978 154.95092773 C-225.58245353 152.12940058 -229.38456686 149.96823588 -233.30776978 147.76342773 C-233.95745728 147.39540039 -234.60714478 147.02737305 -235.27651978 146.64819336 C-236.86887604 145.74663871 -238.46313358 144.84844356 -240.05776978 143.95092773 Z M-200.05776978 154.95092773 C-196.56975427 158.43894324 -195.85546937 158.65041248 -191.05776978 158.95092773 C-187.07481295 158.6333816 -183.13622318 158.08550997 -179.18276978 157.51342773 C-178.1128479 157.36583008 -177.04292603 157.21823242 -175.94058228 157.06616211 C-173.31176201 156.70235216 -170.68436962 156.33038203 -168.05776978 155.95092773 C-168.05776978 155.62092773 -168.05776978 155.29092773 -168.05776978 154.95092773 C-178.61776978 154.95092773 -189.17776978 154.95092773 -200.05776978 154.95092773 Z M-180.05776978 162.95092773 C-180.05776978 163.28092773 -180.05776978 163.61092773 -180.05776978 163.95092773 C-177.41776978 163.95092773 -174.77776978 163.95092773 -172.05776978 163.95092773 C-172.38776978 163.29092773 -172.71776978 162.63092773 -173.05776978 161.95092773 C-175.48574288 161.95092773 -177.68683982 162.45178459 -180.05776978 162.95092773 Z M-232.05776978 172.95092773 C-228.05776978 173.95092773 -228.05776978 173.95092773 -228.05776978 173.95092773 Z M-229.05776978 194.95092773 C-225.05776978 195.95092773 -225.05776978 195.95092773 -225.05776978 195.95092773 Z M-244.05776978 202.95092773 C-240.57956345 205.26973195 -237.89946788 205.76899922 -233.80776978 206.57592773 C-231.8819104 206.96651367 -231.8819104 206.96651367 -229.91714478 207.36499023 C-226.22609344 207.92537252 -222.78364521 208.05710553 -219.05776978 207.95092773 C-221.70249423 203.98384105 -223.44843885 203.91985616 -228.05776978 202.95092773 C-230.87886797 202.7419575 -233.66861593 202.75868803 -236.49526978 202.82592773 C-237.59258423 202.83946289 -237.59258423 202.83946289 -238.71206665 202.85327148 C-240.49411275 202.8765662 -242.27598736 202.91242583 -244.05776978 202.95092773 Z " fill="#FF1066" transform="translate(328.0577697753906,124.049072265625)"/>
<path d="M0 0 C0.71671875 0.28875 1.4334375 0.5775 2.171875 0.875 C3.98907808 1.59786531 5.81167965 2.30738164 7.640625 3 C8.50171875 3.33 9.3628125 3.66 10.25 4 C11.12140625 4.33 11.9928125 4.66 12.890625 5 C15 6 15 6 16 8 C16.12375 9.134375 16.2475 10.26875 16.375 11.4375 C16.98576975 14.91888757 17.24651558 15.96481586 20 18 C19.67 17.38125 19.34 16.7625 19 16.125 C17.32146379 10.87957435 17.25551801 5.23344596 19 0 C21.49361571 1.20381448 23.68143083 2.45428722 26 4 C26.66 3.34 27.32 2.68 28 2 C31.49406734 1.44094923 33.95711186 1.41932299 37.09765625 3.16796875 C43.82404522 8.05874503 47.22642976 12.71975786 49.3125 20.8125 C51.01303418 26.84414608 52.90595257 30.90595257 57.41015625 35.41015625 C59.74370907 37.74370907 60.99848795 39.86192892 62 43 C61.25 46.6875 61.25 46.6875 60 50 C59.67 50.99 59.34 51.98 59 53 C56 52 56 52 54.83666992 50.26928711 C54.47162354 49.5294458 54.10657715 48.78960449 53.73046875 48.02734375 C53.31603516 47.20943359 52.90160156 46.39152344 52.47460938 45.54882812 C52.04986328 44.68708984 51.62511719 43.82535156 51.1875 42.9375 C48.31034344 37.12483581 45.3550802 31.80950542 41.31323242 26.71801758 C38.3238684 22.80722475 37 19.91103464 37 15 C35.02 14.505 35.02 14.505 33 14 C36.67771619 23.85472543 40.92556732 31.95034366 47.82324219 39.94946289 C52.62373743 45.51862925 55.11213979 50.85310063 57 58 C57.33 58.99 57.66 59.98 58 61 C55.29087003 68.73868867 50.84996373 74.6996393 45.234375 80.55078125 C42.98684227 83.0144229 41.16243703 85.54168724 39.3125 88.3125 C36.54040542 92.3556702 34.2443258 95.47146548 30 98 C24.81647825 97.33827382 21.06543479 94.08973044 17 91 C17.01160156 92.12019531 17.02320313 93.24039063 17.03515625 94.39453125 C17.04453622 95.86718583 17.0536362 97.33984222 17.0625 98.8125 C17.07087891 99.55048828 17.07925781 100.28847656 17.08789062 101.04882812 C17.12305787 108.82078924 17.12305787 108.82078924 14.75 111.3125 C14.1725 111.869375 13.595 112.42625 13 113 C12.2575 114.051875 11.515 115.10375 10.75 116.1875 C8 119 8 119 4.375 119.5 C1 119 1 119 -2 117 C-1.7525 118.175625 -1.505 119.35125 -1.25 120.5625 C-0.8008551 124.42106299 -1.30781773 127.03320961 -3.53515625 130.35546875 C-8.35085362 135.76189166 -15.30334419 138.70643595 -21.625 142 C-30.70165049 146.36397403 -30.70165049 146.36397403 -36.7890625 153.93359375 C-41.81811314 162.51542533 -59.84715615 167.98267749 -69 171 C-79.64305444 173.69823915 -79.64305444 173.69823915 -85 172 C-85 171.34 -85 170.68 -85 170 C-85.556875 169.95875 -86.11375 169.9175 -86.6875 169.875 C-90.19234649 168.54884187 -92.0848189 166.10259339 -94 163 C-95.21015219 160.05145459 -96.16004752 157.07299689 -97 154 C-96.86980469 155.02480469 -96.73960937 156.04960937 -96.60546875 157.10546875 C-96.46472419 158.46599952 -96.3254802 159.8266861 -96.1875 161.1875 C-96.09791016 161.86103516 -96.00832031 162.53457031 -95.91601562 163.22851562 C-95.5379294 167.30786704 -95.77053516 168.72323805 -98.42578125 171.92578125 C-99.27527344 172.61027344 -100.12476563 173.29476562 -101 174 C-101.33 174.33 -101.66 174.66 -102 175 C-106.82466428 174.87041191 -111.72142249 174.33376955 -116 172 C-116.66 171.01 -117.32 170.02 -118 169 C-118.99 172.3 -119.98 175.6 -121 179 C-128.77692797 177.05576801 -133.0166807 175.34412515 -138.41796875 169.50390625 C-140.5102254 167.51497091 -142.17326404 167.353342 -145 167 C-147.42339018 165.79084515 -149.68235579 164.40876413 -152 163 C-151.67 166.63 -151.34 170.26 -151 174 C-155.49477983 176.99651989 -159.72661111 176.46630747 -165 176 C-173.97590361 174.02409639 -173.97590361 174.02409639 -176 172 C-179.27420355 171.55059951 -182.54747604 171.18179277 -185.83398438 170.83789062 C-190.1392082 170.34893169 -193.8963951 169.46187327 -198 168 C-199.61892915 167.65743662 -201.24420784 167.34321013 -202.875 167.0625 C-206.84171757 166.31428681 -210.33794525 165.16889539 -214.0625 163.64453125 C-216.13416458 162.95536864 -217.95165101 162.76906669 -220.125 162.625 C-225.12038457 161.81929281 -226.61703742 160.71300771 -230 157 C-231.36555238 153.15938392 -231.14819413 151.40753386 -229.75 147.5625 C-228.05853304 141.91695444 -230.85315511 136.55221113 -232.8359375 131.29296875 C-234 128 -234 128 -234 125 C-234.66 125 -235.32 125 -236 125 C-235.649375 125.556875 -235.29875 126.11375 -234.9375 126.6875 C-233.73890389 129.64403708 -233.83177531 131.04049744 -235 134 C-237.375 135.4375 -237.375 135.4375 -240 136 C-240.99 135.34 -241.98 134.68 -243 134 C-243 135.65 -243 137.3 -243 139 C-242.01 139 -241.02 139 -240 139 C-237.33333333 139 -234.66666667 139 -232 139 C-230.80885767 142.72231978 -230.66497617 146.11372361 -231 150 C-233.02666238 153.70390021 -234.48044516 155.65363011 -238 158 C-238.99 158 -239.98 158 -241 158 C-241.495 155.525 -241.495 155.525 -242 153 C-242.99 153.309375 -243.98 153.61875 -245 153.9375 C-247.86352158 154.39425804 -248.78578937 154.14231037 -251.24609375 152.5078125 C-253.2428066 150.73532943 -255.15117477 148.92565952 -257 147 C-257.66 147.66 -258.32 148.32 -259 149 C-262.63171249 149.49523352 -264.70871607 149.13078054 -268.0625 147.625 C-272.08005744 144.03484229 -273.88967642 139.89296263 -276 135 C-276.391875 135.969375 -276.78375 136.93875 -277.1875 137.9375 C-279 141 -279 141 -281.25 142 C-284.76449875 142 -287.68080815 141.10639728 -291 140 C-291.33333333 138.33333333 -291.66666667 136.66666667 -292 135 C-292.2475 134.175 -292.495 133.35 -292.75 132.5 C-293 130 -293 130 -292 127.375 C-290 125 -290 125 -286.5 123.6875 C-282.69562517 121.85324785 -282.4234788 121.52426037 -281.0625 117.8125 C-280.711875 116.554375 -280.36125 115.29625 -280 114 C-279.34 114 -278.68 114 -278 114 C-277.9175 115.11375 -277.835 116.2275 -277.75 117.375 C-277.5025 118.57125 -277.255 119.7675 -277 121 C-275.02257219 122.26009792 -275.02257219 122.26009792 -273 123 C-272.76925781 122.43410156 -272.53851563 121.86820312 -272.30078125 121.28515625 C-271.31565123 119.06958715 -270.33896798 117.02342445 -269 115 C-266.25 114 -266.25 114 -264 114 C-263.505 114.99 -263.505 114.99 -263 116 C-260.50638429 114.79618552 -258.31856917 113.54571278 -256 112 C-253.5 112.125 -253.5 112.125 -251 113 C-249.34375 115.0546875 -249.34375 115.0546875 -248 117 C-247.93530518 116.45061768 -247.87061035 115.90123535 -247.80395508 115.33520508 C-247.49555866 112.82435526 -247.15437872 110.31900119 -246.8125 107.8125 C-246.71130859 106.94818359 -246.61011719 106.08386719 -246.50585938 105.19335938 C-245.70521405 99.54556397 -244.63084601 96.69497144 -240 93 C-239.37996094 92.44054687 -238.75992188 91.88109375 -238.12109375 91.3046875 C-235.14357388 88.77621355 -232.17268335 86.28433201 -229 84 C-228.34 84.33 -227.68 84.66 -227 85 C-226.68546875 84.28972656 -226.3709375 83.57945312 -226.046875 82.84765625 C-225.61890625 81.92855469 -225.1909375 81.00945312 -224.75 80.0625 C-224.33234375 79.14597656 -223.9146875 78.22945313 -223.484375 77.28515625 C-221.67182694 74.49478622 -221.07137826 74.76606468 -218 74 C-216.34782493 72.81070733 -216.34782493 72.81070733 -214.8125 71.30859375 C-210.81669923 67.74623938 -206.53610827 64.88995675 -202 62.0625 C-200.84757812 61.30356445 -200.84757812 61.30356445 -199.671875 60.52929688 C-195.79236795 58.11120277 -193.75541781 56.98343052 -189.08203125 57.0859375 C-185.46702862 58.15806756 -184.14569853 58.90065768 -182 62 C-180.43602268 66.27189233 -179.71516154 70.44258468 -180 75 C-179.34 75 -178.68 75 -178 75 C-177.773125 74.29875 -177.54625 73.5975 -177.3125 72.875 C-175.64780651 69.22852855 -173.90530373 66.77617912 -171 64 C-167.375 63.4375 -167.375 63.4375 -164 64 C-162.0625 65.5 -162.0625 65.5 -161 67 C-159.88625 65.8553125 -159.88625 65.8553125 -158.75 64.6875 C-152.93023256 59 -152.93023256 59 -148 59 C-146.078125 60.6796875 -146.078125 60.6796875 -144.25 62.875 C-143.63640625 63.59429687 -143.0228125 64.31359375 -142.390625 65.0546875 C-141 67 -141 67 -141 69 C-140.113125 68.7525 -139.22625 68.505 -138.3125 68.25 C-135 68 -135 68 -132.125 69.9375 C-131.42375 70.618125 -130.7225 71.29875 -130 72 C-130.02320313 71.32453125 -130.04640625 70.6490625 -130.0703125 69.953125 C-130.08835937 69.06109375 -130.10640625 68.1690625 -130.125 67.25 C-130.14820313 66.36828125 -130.17140625 65.4865625 -130.1953125 64.578125 C-129.99139502 61.8864142 -129.36551721 60.30095026 -128 58 C-126.68 58 -125.36 58 -124 58 C-123.34 56.68 -122.68 55.36 -122 54 C-118.5 54.5 -118.5 54.5 -115 55 C-113.741875 55.12375 -112.48375 55.2475 -111.1875 55.375 C-110.135625 55.58125 -109.08375 55.7875 -108 56 C-107.34 56.99 -106.68 57.98 -106 59 C-105.5875 58.071875 -105.175 57.14375 -104.75 56.1875 C-102.33295609 51.78502716 -100.38611423 50.44769896 -95.6015625 48.90234375 C-94.27889936 48.56917166 -92.95314061 48.24811865 -91.625 47.9375 C-90.9247168 47.76686035 -90.22443359 47.5962207 -89.50292969 47.42041016 C-83.66873496 46.04665317 -77.84726795 45.17096774 -71.890625 44.4921875 C-69.14932689 44.02542593 -67.29463437 43.55477562 -65 42 C-64.67 41.01 -64.34 40.02 -64 39 C-61.8125 37.5625 -61.8125 37.5625 -59 36 C-58.0925 35.278125 -57.185 34.55625 -56.25 33.8125 C-51.99062683 31.43708034 -48.77389431 31.05331248 -44 32 C-41.05186341 33.33669992 -38.55615142 35.02573671 -36 37 C-35.18917969 37.61101562 -34.37835938 38.22203125 -33.54296875 38.8515625 C-24.61946813 46.39061833 -16.50912554 57.45802253 -14 69 C-13.9175 68.071875 -13.835 67.14375 -13.75 66.1875 C-12.8791495 62.48638537 -12.04173608 62.02579623 -9 60 C-10.01707031 59.19949219 -10.01707031 59.19949219 -11.0546875 58.3828125 C-18.60915399 52.335054 -26.06234818 46.05621701 -32.03515625 38.38671875 C-33.9026903 36.11820323 -35.58097053 34.69251009 -38 33.0625 C-41.59744925 30.41988774 -44.09441638 28.14257309 -46 24 C-46.43567322 19.47989037 -45.33354279 16.55243024 -43 12.6875 C-39.82237214 9.30605927 -35.58318697 7.52472981 -31 7 C-27.70839131 8.14259079 -27.10588157 8.81568764 -25.3125 11.9375 C-22.51925746 15.63665903 -20.59176469 16.13071314 -16.21875 17.1640625 C-13.43224405 18.21390805 -11.96962197 19.80655735 -10 22 C-11.43011519 19.70342089 -12.86858459 17.41287838 -14.3125 15.125 C-14.71662109 14.47402344 -15.12074219 13.82304687 -15.53710938 13.15234375 C-17.49963141 10.05698379 -18.9125335 8.058311 -22 6 C-21.67 5.01 -21.34 4.02 -21 3 C-14.35085659 0.31204841 -6.90312793 0.01634255 0 2 C0 1.34 0 0.68 0 0 Z M-8 12 C-5.27757842 14.0818518 -2.49914298 16.00932824 0.375 17.875 C4.1476851 20.36933725 7.59277729 23.02960072 11 26 C9.67245754 20.35794455 5.60645724 17.98519017 1 15 C-3.25568459 12.5479899 -3.25568459 12.5479899 -8 12 Z M37 12 C38 14 38 14 38 14 Z M21 20 C22 22 22 22 22 22 Z M22 22 C23 24 23 24 23 24 Z M24 25 C25 27 25 27 25 27 Z M11 26 C12 28 12 28 12 28 Z M-29 27 C-26.87639269 32.08780919 -24.43653551 34.64546312 -20 37.875 C-18.948125 38.65617187 -17.89625 39.43734375 -16.8125 40.2421875 C-14.12877318 42.26499947 -14.12877318 42.26499947 -11 42 C-13.05336006 39.86546758 -15.11680465 37.74260431 -17.1875 35.625 C-17.76564453 35.02171875 -18.34378906 34.4184375 -18.93945312 33.796875 C-22.08031481 30.60277837 -24.56898144 28.25170016 -29 27 Z M25 27 C26 29 26 29 26 29 Z M12 28 C13 30 13 30 13 30 Z M-3 37 C-2 39 -2 39 -2 39 Z M-45 40 C-43.55049545 43.7910119 -41.84827434 47.3874638 -40 51 C-38.78309467 49.23470405 -38.78309467 49.23470405 -38 47 C-38.84822675 43.88983523 -39.92162056 43.05225296 -42.625 41.25 C-43.40875 40.8375 -44.1925 40.425 -45 40 Z M-1 40 C-0.67 40.99 -0.34 41.98 0 43 C0 42.01 0 41.02 0 40 C-0.33 40 -0.66 40 -1 40 Z M-56 43 C-56 43.99 -56 44.98 -56 46 C-55.34 46.33 -54.68 46.66 -54 47 C-54 45.68 -54 44.36 -54 43 C-54.66 43 -55.32 43 -56 43 Z M9 51 C10 53 10 53 10 53 Z M10 53 C11 55 11 55 11 55 Z M-85 54 C-84.443125 54.556875 -83.88625 55.11375 -83.3125 55.6875 C-81.65595521 57.34404479 -80.03458408 59.0360561 -78.4375 60.75 C-76.18546722 63.33914005 -76.18546722 63.33914005 -73 63 C-74.77167774 58.04059027 -74.77167774 58.04059027 -78 54 C-81.62563814 53.66619186 -81.62563814 53.66619186 -85 54 Z M11 55 C12 57 12 57 12 57 Z M-93.125 56.5 C-94.21167969 56.91765625 -94.21167969 56.91765625 -95.3203125 57.34375 C-95.87460937 57.5603125 -96.42890625 57.776875 -97 58 C-97 59.32 -97 60.64 -97 62 C-94.18288354 64.12821884 -94.18288354 64.12821884 -91 66 C-90.01 66.99 -89.02 67.98 -88 69 C-87.67 64.38 -87.34 59.76 -87 55 C-89.36543716 55 -90.92304264 55.64762941 -93.125 56.5 Z M12 57 C13 59 13 59 13 59 Z M13 59 C14 61 14 61 14 61 Z M-117 62 C-116.40312566 65.34249629 -115.26396123 67.46436342 -113 70 C-112.34 70 -111.68 70 -111 70 C-111 68.35 -111 66.7 -111 65 C-112.98 64.01 -114.96 63.02 -117 62 Z M-192 67 C-192 69.64 -192 72.28 -192 75 C-191.34 74.67 -190.68 74.34 -190 74 C-190 71.69 -190 69.38 -190 67 C-190.66 67 -191.32 67 -192 67 Z M-50 66 C-49.41321669 69.52069985 -48.64350079 71.71299843 -47 75 C-50.63 73.02 -54.26 71.04 -58 69 C-56.5460552 72.63486199 -55.03937673 76.06750402 -53.3203125 79.5703125 C-52.54494141 81.16359375 -52.54494141 81.16359375 -51.75390625 82.7890625 C-50.67871289 84.99101724 -49.6006451 87.19157104 -48.51953125 89.390625 C-45.2437473 96.13727681 -42.39974869 102.89312026 -40 110 C-38.06604999 107.09907498 -37.69868059 106.10325263 -37.375 102.8125 C-37.25125 101.554375 -37.1275 100.29625 -37 99 C-36.34 99 -35.68 99 -35 99 C-34.34 101.97 -33.68 104.94 -33 108 C-32.67 108 -32.34 108 -32 108 C-31.15184325 101.78018382 -33.31038367 98.03150924 -36.2109375 92.6015625 C-38.7633925 87.6634242 -40.6228585 82.43676116 -42.55102539 77.23120117 C-44.04387315 73.25245442 -45.49242483 69.47468405 -48 66 C-48.66 66 -49.32 66 -50 66 Z M-168 70 C-167.86722656 70.52464844 -167.73445313 71.04929687 -167.59765625 71.58984375 C-166.62979897 75.8356994 -165.95067212 79.91716189 -165.85546875 84.2734375 C-165.83540771 85.02117432 -165.81534668 85.76891113 -165.79467773 86.53930664 C-165.76532038 88.0330025 -165.76019378 89.52740776 -165.78149414 91.02124023 C-165.7157111 93.98556705 -165.58539389 96.31408184 -163.61523438 98.62255859 C-161.7973304 100.19059463 -161.7973304 100.19059463 -159 102 C-160.00647008 84.41484311 -160.00647008 84.41484311 -168 70 Z M-111 70 C-110 73 -110 73 -110 73 Z M-103 70 C-103.30298601 81.8332868 -102.68401992 90.57929681 -97 101 C-95.41947989 96.92054945 -96.46420686 93.02433239 -97.25 88.875 C-97.38768799 88.12033447 -97.52537598 87.36566895 -97.66723633 86.58813477 C-98.73474362 80.93452412 -100.11483624 75.44157199 -102 70 C-102.33 70 -102.66 70 -103 70 Z M3 71 C3 72.65 3 74.3 3 76 C3.99 76.495 3.99 76.495 5 77 C4.67 75.02 4.34 73.04 4 71 C3.67 71 3.34 71 3 71 Z M-129 74 C-128.56364417 78.02538251 -127.84980333 81.69270948 -126.625 85.5546875 C-122.4787375 98.90949495 -121.28965048 111.32236402 -121.31445312 125.20068359 C-121.30017546 134.22770177 -120.25522275 142.2547189 -118 151 C-116.96687625 147.36688846 -117.21348965 144.97888991 -117.9375 141.25 C-119.6684066 130.78213627 -119.7880573 120.57714384 -117.39453125 110.2109375 C-115.20241991 97.92643235 -122.37361593 84.40881052 -128 74 C-128.33 74 -128.66 74 -129 74 Z M-216 75 C-216.99 76.485 -216.99 76.485 -218 78 C-217.66613281 78.55171875 -217.33226562 79.1034375 -216.98828125 79.671875 C-214.17083525 86.30902052 -217.19937102 95.30579327 -218.5625 102.1875 C-220.61645473 112.75670558 -220.51743182 119.15556076 -216 129 C-215.41370711 130.37374067 -214.82998213 131.74858309 -214.25 133.125 C-213.8375 134.07375 -213.425 135.0225 -213 136 C-212.67 136 -212.34 136 -212 136 C-211.8171342 128.17740743 -211.742991 120.67143495 -213.125 112.9375 C-214.18959276 106.49120732 -213.49122096 100.97056998 -212.45703125 94.55859375 C-211.56404762 87.60553316 -212.21108733 81.42364311 -215 75 C-215.33 75 -215.66 75 -216 75 Z M-181 76 C-181.17015625 76.6290625 -181.3403125 77.258125 -181.515625 77.90625 C-182.97093389 83.04627715 -184.61866627 87.59700416 -187.328125 92.2109375 C-188.18358294 94.48884295 -187.77690546 95.7390059 -187 98 C-183.73404112 96.36702056 -183.2277193 93.21299161 -181.953125 89.921875 C-180.46643078 85.3643042 -179.68433101 80.73629096 -179 76 C-179.66 76 -180.32 76 -181 76 Z M23 76 C23.33 76.99 23.66 77.98 24 79 C24 78.01 24 77.02 24 76 C23.67 76 23.34 76 23 76 Z M5 78 C6 80 6 80 6 80 Z M-172 79 C-171 81 -171 81 -171 81 Z M-12 90 C-12 91.65 -12 93.3 -12 95 C-11.67 95 -11.34 95 -11 95 C-11 93.35 -11 91.7 -11 90 C-11.33 90 -11.66 90 -12 90 Z M-229 92 C-229 94.64 -229 97.28 -229 100 C-228.67 100 -228.34 100 -228 100 C-228 97.36 -228 94.72 -228 92 C-228.33 92 -228.66 92 -229 92 Z M-147 95 C-145.73915991 99.52139763 -144.47567474 104.04204438 -143.2097168 108.56201172 C-142.77929809 110.10021876 -142.34960688 111.63862956 -141.9206543 113.17724609 C-141.30447829 115.38693162 -140.68570208 117.59587462 -140.06640625 119.8046875 C-139.87470352 120.49432587 -139.68300079 121.18396423 -139.48548889 121.89450073 C-138.47029459 125.5315931 -138.47029459 125.5315931 -137 129 C-136.34 129 -135.68 129 -135 129 C-135.30627136 124.72869589 -135.62107887 120.45806325 -135.9375 116.1875 C-136.02451172 114.97255859 -136.11152344 113.75761719 -136.20117188 112.50585938 C-136.28818359 111.34248047 -136.37519531 110.17910156 -136.46484375 108.98046875 C-136.543396 107.90692139 -136.62194824 106.83337402 -136.70288086 105.72729492 C-136.91248862 102.90982842 -136.91248862 102.90982842 -138 100 C-138.99 100 -139.98 100 -141 100 C-141.33 97.69 -141.66 95.38 -142 93 C-144.32357511 92.81509993 -144.32357511 92.81509993 -147 95 Z M-11 95 C-10 99 -10 99 -10 99 Z M-181 98 C-182.39935013 100.79870027 -182.25265405 102.90498792 -182 106 C-181.01 106.99 -180.02 107.98 -179 109 C-179.33 105.37 -179.66 101.74 -180 98 C-180.33 98 -180.66 98 -181 98 Z M-164 100 C-163.67 101.32 -163.34 102.64 -163 104 C-162.67 103.34 -162.34 102.68 -162 102 C-162.66 101.34 -163.32 100.68 -164 100 Z M-171 103 C-170 107 -170 107 -170 107 Z M-162 104 C-161 106 -161 106 -161 106 Z M-170 107 C-170 108.98 -170 110.96 -170 113 C-169.67 113 -169.34 113 -169 113 C-169 111.02 -169 109.04 -169 107 C-169.33 107 -169.66 107 -170 107 Z M-160 109 C-159 111 -159 111 -159 111 Z M-12 110 C-12.33 115.94 -12.66 121.88 -13 128 C-20.75 123.25 -20.75 123.25 -23 121 C-23 124.96 -23 128.92 -23 133 C-17.22079548 132.87959991 -13.78395051 131.17589769 -9.52734375 127.24609375 C-7.11216546 123.69436097 -7.49000688 120.51006773 -7.9140625 116.35546875 C-7.94242187 115.57816406 -7.97078125 114.80085938 -8 114 C-7.34 113.34 -6.68 112.68 -6 112 C-7.98 111.34 -9.96 110.68 -12 110 Z M-199 111 C-199.38873828 112.95565258 -199.76060833 114.91466504 -200.125 116.875 C-200.33382812 117.96554687 -200.54265625 119.05609375 -200.7578125 120.1796875 C-200.83773437 121.11039063 -200.91765625 122.04109375 -201 123 C-200.34 123.66 -199.68 124.32 -199 125 C-198.01 124.34 -197.02 123.68 -196 123 C-195.86464844 123.61746094 -195.72929687 124.23492187 -195.58984375 124.87109375 C-193.86098328 131.67265858 -191.14959734 137.1236466 -186 142 C-183.38548426 143.25966249 -183.38548426 143.25966249 -181 144 C-181.28359375 143.29875 -181.5671875 142.5975 -181.859375 141.875 C-182.6241648 139.94731063 -183.36358099 138.00937355 -184.078125 136.0625 C-186.55922864 129.57854915 -188.63264158 126.4537655 -194 122 C-195.65868132 118.42745562 -196.87704902 114.77179419 -198 111 C-198.33 111 -198.66 111 -199 111 Z M-159 111 C-158 114 -158 114 -158 114 Z M-228 112 C-227 114 -227 114 -227 114 Z M-176 112 C-175.34 113.65 -174.68 115.3 -174 117 C-173.67 117 -173.34 117 -173 117 C-173 115.35 -173 113.7 -173 112 C-173.99 112 -174.98 112 -176 112 Z M-158 114 C-158 115.65 -158 117.3 -158 119 C-157.01 119.33 -156.02 119.66 -155 120 C-155.66 118.02 -156.32 116.04 -157 114 C-157.33 114 -157.66 114 -158 114 Z M-92 115 C-91 117 -91 117 -91 117 Z M-91 118 C-89.77048326 125.47835477 -88.11170763 132.7216477 -86 140 C-85.67 140 -85.34 140 -85 140 C-85.30878506 132.01790621 -86.93553239 125.36897561 -90 118 C-90.33 118 -90.66 118 -91 118 Z M-247 119 C-246 122 -246 122 -246 122 Z M-155 120 C-154 123 -154 123 -154 123 Z M-111 120 C-110.34 132.54 -109.68 145.08 -109 158 C-107.35 158.33 -105.7 158.66 -104 159 C-105.60517792 145.91083216 -107.35517235 132.92401598 -110 120 C-110.33 120 -110.66 120 -111 120 Z M-274 124 C-273 126 -273 126 -273 126 Z M-182 124 C-181 126 -181 126 -181 126 Z M-181 126 C-180.34 127.65 -179.68 129.3 -179 131 C-178.67 130.34 -178.34 129.68 -178 129 C-178.99 128.01 -179.98 127.02 -181 126 Z M-275 129 C-274 132 -274 132 -274 132 Z M-245 129 C-244 133 -244 133 -244 133 Z M-208 129 C-207.56826496 135.15222436 -206.34594658 138.81917949 -203 144 C-202.01 143.67 -201.02 143.34 -200 143 C-202.64430772 135.13742228 -202.64430772 135.13742228 -208 129 Z M-77 129 C-77.2494783 136.29031024 -76.72330907 142.90673679 -75 150 C-74.67 150 -74.34 150 -74 150 C-73.71692075 142.75002578 -74.49025965 136.09038772 -76 129 C-76.33 129 -76.66 129 -77 129 Z M-223 132 C-222 134 -222 134 -222 134 Z M-35 132 C-36.35439668 134.70879335 -36.06501451 137.00933268 -36 140 C-35.01 140.495 -35.01 140.495 -34 141 C-33.34 140.67 -32.68 140.34 -32 140 C-32.66 137.36 -33.32 134.72 -34 132 C-34.33 132 -34.66 132 -35 132 Z M-222 134 C-221 137 -221 137 -221 137 Z M-212 136 C-211 140 -211 140 -211 140 Z M-221 137 C-220 140 -220 140 -220 140 Z M-220 140 C-219 142 -219 142 -219 142 Z M-211 140 C-210 144 -210 144 -210 144 Z M-85 141 C-84 144 -84 144 -84 144 Z M-62 143 C-61.67 144.65 -61.34 146.3 -61 148 C-60.67 146.68 -60.34 145.36 -60 144 C-60.66 143.67 -61.32 143.34 -62 143 Z M-210 144 C-209 147 -209 147 -209 147 Z M-197 149 C-196.5205537 153.21912747 -195.83374881 155.79663178 -193 159 C-192.34 158.67 -191.68 158.34 -191 158 C-192.65 155.03 -194.3 152.06 -196 149 C-196.33 149 -196.66 149 -197 149 Z M-118 155 C-117 157 -117 157 -117 157 Z " fill="#FF1066" transform="translate(387,237)"/>
<path d="M0 0 C0.66 0 1.32 0 2 0 C3.20539165 4.94210576 2.79432587 8.24503645 1 13 C-0.625 14.9375 -0.625 14.9375 -2 16 C-1.01 16.639375 -0.02 17.27875 1 17.9375 C1.99 18.618125 2.98 19.29875 4 20 C4 20.33 4 20.66 4 21 C3.071875 21.061875 2.14375 21.12375 1.1875 21.1875 C-2.16901564 21.66443891 -2.16901564 21.66443891 -3.625 24.4375 C-4.07875 25.283125 -4.5325 26.12875 -5 27 C-7.61306044 29.05311892 -8.91543743 29.00474277 -12.2734375 28.81640625 C-16.57306674 27.87445393 -18.57016781 26.42333119 -21.875 23.5625 C-22.82117188 22.75941406 -23.76734375 21.95632812 -24.7421875 21.12890625 C-27.94429635 18.10961677 -27.94429635 18.10961677 -28.09765625 15.0546875 C-28.06510417 13.03645833 -28.03255208 11.01822917 -28 9 C-24.28954753 10.57780923 -21.70093616 12.90703248 -18.75 15.625 C-17.85796875 16.44226563 -16.9659375 17.25953125 -16.046875 18.1015625 C-15.03367187 19.04128906 -15.03367187 19.04128906 -14 20 C-14.99 17.03 -15.98 14.06 -17 11 C-12.23374833 9.80843708 -11.12120649 10.6584054 -7 13 C-7.99 11.35 -8.98 9.7 -10 8 C-8.8125 6.5 -8.8125 6.5 -7 5 C-4.3125 4.8125 -4.3125 4.8125 -2 5 C-1.34 3.35 -0.68 1.7 0 0 Z " fill="#FF1066" transform="translate(471,229)"/>
<path d="M0 0 C6.79597512 0.89986232 11.25470831 1.90749185 16 7 C18.93436914 11.2595681 19.31280392 14.16629617 18.4609375 19.09765625 C17.87490619 21.51627699 17.05560169 23.74804974 16 26 C11.52388307 24.50796102 9.11193577 21.02409384 7 17 C6.1452763 14.19840564 5.45949951 11.41976657 4.87109375 8.55078125 C3.83661679 5.52157293 2.30511141 4.16369353 0 2 C0 1.34 0 0.68 0 0 Z " fill="#FF1066" transform="translate(439,253)"/>
<path d="M0 0 C4.56237931 -0.08719631 9.12454386 -0.14045922 13.6875 -0.1875 C14.98107422 -0.21263672 16.27464844 -0.23777344 17.60742188 -0.26367188 C18.85458984 -0.27333984 20.10175781 -0.28300781 21.38671875 -0.29296875 C22.53358154 -0.3086792 23.68044434 -0.32438965 24.86206055 -0.34057617 C28.36250581 0.03934456 30.25835151 0.80687367 33 3 C33 3.99 33 4.98 33 6 C24.42136724 8.64772616 12.19094736 8.25636109 4.12109375 4.01171875 C2.4375 2.9375 2.4375 2.9375 0 1 C0 0.67 0 0.34 0 0 Z " fill="#FF1066" transform="translate(48,339)"/>
<path d="M0 0 C2 1 2 1 2 1 Z " fill="#FF1066" transform="translate(132,315)"/>
<path d="" fill="#FF1066" transform="translate(0,0)"/>
</svg>
